<?xml version="1.0" encoding="utf-8"?>
<!-- Generator: Adobe Illustrator 16.0.0, SVG Export Plug-In . SVG Version: 6.00 Build 0)  -->
<!DOCTYPE svg PUBLIC "-//W3C//DTD SVG 1.1//EN" "http://www.w3.org/Graphics/SVG/1.1/DTD/svg11.dtd">
<svg version="1.1" id="Capa_1" xmlns="http://www.w3.org/2000/svg" xmlns:xlink="http://www.w3.org/1999/xlink" x="0px" y="0px"
	 width="45.057px" height="45.057px" viewBox="0 0 45.057 45.057" enable-background="new 0 0 45.057 45.057" xml:space="preserve">
<g id="_x35_1_80_">
	<g>
		<path fill="#FFFFFF" d="M13.106,13.381c7.005,0,14.008,0,21.013,0c1.76,0,1.76-2.5,0-2.5c-7.005,0-14.008,0-21.013,0
			C11.346,10.881,11.346,13.381,13.106,13.381z"/>
		<path fill="#FFFFFF" d="M34.122,18.798c-7.006,0-14.01,0-21.015,0c-1.76,0-1.76,2.5,0,2.5c7.005,0,14.009,0,21.015,0
			C35.879,21.298,35.879,18.798,34.122,18.798z"/>
		<path fill="#FFFFFF" d="M34.122,27.281c-7.006,0-14.01,0-21.015,0c-1.76,0-1.76,2.5,0,2.5c7.005,0,14.009,0,21.015,0
			C35.879,29.781,35.879,27.281,34.122,27.281z"/>
		<path fill="#FFFFFF" d="M34.122,35.197c-7.006,0-14.01,0-21.015,0c-1.76,0-1.76,2.5,0,2.5c7.005,0,14.009,0,21.015,0
			C35.879,37.697,35.879,35.197,34.122,35.197z"/>
		<path fill="#FFFFFF" d="M35.054,0H4.216v45.057h37.875V6.251L35.054,0z M38.817,42.056H7.49V3h25.877v4.76h5.449V42.056z"/>
	</g>
</g>
</svg>
