<?xml version="1.0" encoding="utf-8"?>
<!-- Generator: Adobe Illustrator 16.0.0, SVG Export Plug-In . SVG Version: 6.00 Build 0)  -->
<!DOCTYPE svg PUBLIC "-//W3C//DTD SVG 1.1//EN" "http://www.w3.org/Graphics/SVG/1.1/DTD/svg11.dtd">
<svg version="1.1" id="Layer_1" xmlns="http://www.w3.org/2000/svg" xmlns:xlink="http://www.w3.org/1999/xlink" x="0px" y="0px"
	 width="27px" height="24px" viewBox="0 0 27 24" enable-background="new 0 0 27 24" xml:space="preserve">
<g>
	<g id="Layer_5_21_">
		<g>
			<path fill="#FFFFFF" d="M23.365,20.427c0,0-2.657-4.567-3.134-5.387c0.542-0.165,1.12-0.312,1.36-0.726
				c0.399-0.69-0.313-1.824-0.125-2.564c0.192-0.762,1.329-1.421,1.329-2.195c0-0.754-1.176-1.636-1.368-2.393
				c-0.188-0.741,0.521-1.875,0.12-2.564s-1.737-0.633-2.289-1.163c-0.565-0.544-0.563-1.878-1.246-2.243
				c-0.686-0.366-1.801,0.375-2.563,0.199c-0.752-0.174-1.426-1.307-2.211-1.307c-0.799,0-2.068,1.286-2.266,1.332
				c-0.762,0.177-1.878-0.562-2.563-0.194C7.729,1.587,7.733,2.921,7.167,3.466C6.618,3.998,5.281,3.942,4.882,4.634
				c-0.4,0.69,0.311,1.823,0.125,2.564C4.819,7.94,3.642,8.692,3.642,9.551c0,0.774,1.141,1.432,1.334,2.193
				c0.188,0.74-0.521,1.875-0.12,2.565c0.219,0.375,0.714,0.529,1.21,0.678c0.057,0.018,0.166,0.081,0.092,0.189
				c-0.338,0.585-3.064,5.29-3.064,5.29c-0.217,0.374-0.041,0.695,0.391,0.713l2.115,0.088c0.432,0.019,0.975,0.333,1.205,0.698
				l1.129,1.791c0.23,0.366,0.596,0.359,0.813-0.016c0,0,3.158-5.45,3.159-5.452c0.063-0.074,0.127-0.059,0.157-0.033
				c0.346,0.295,0.827,0.587,1.229,0.587c0.395,0,0.76-0.275,1.121-0.584c0.029-0.024,0.101-0.076,0.152,0.03
				c0.002,0.002,3.155,5.423,3.155,5.423c0.218,0.374,0.584,0.381,0.813,0.015l1.125-1.793c0.23-0.366,0.771-0.682,1.204-0.7
				l2.114-0.093C23.407,21.122,23.583,20.801,23.365,20.427z M16.733,15.523c-2.338,1.36-5.145,1.215-7.287-0.138
				c-3.143-2.012-4.176-6.174-2.287-9.433c1.91-3.297,6.107-4.46,9.435-2.649c0.017,0.01,0.035,0.02,0.052,0.029
				c0.024,0.014,0.049,0.027,0.074,0.042c1.025,0.592,1.916,1.451,2.553,2.545C21.221,9.268,20.081,13.576,16.733,15.523z"/>
			<path fill="#FFFFFF" d="M16.199,4.36c-0.01-0.006-0.021-0.011-0.03-0.017c-1.775-1.028-4.041-1.103-5.938,0.001
				c-2.817,1.639-3.775,5.264-2.137,8.08c0.499,0.861,1.185,1.546,1.976,2.039c0.067,0.042,0.135,0.084,0.205,0.125
				c2.819,1.633,6.441,0.668,8.076-2.151C19.983,9.617,19.019,5.994,16.199,4.36z M16.904,8.97l-0.987,0.962
				c-0.307,0.298-0.496,0.886-0.424,1.307l0.232,1.358c0.072,0.42-0.178,0.603-0.557,0.404l-1.219-0.641
				c-0.379-0.198-0.997-0.198-1.375,0l-1.221,0.641c-0.379,0.199-0.629,0.017-0.556-0.404l0.233-1.358
				c0.071-0.421-0.119-1.009-0.426-1.307L9.619,8.97c-0.306-0.298-0.21-0.592,0.212-0.654l1.365-0.198
				c0.422-0.062,0.922-0.425,1.112-0.808l0.609-1.236c0.19-0.383,0.498-0.383,0.688,0l0.609,1.236
				c0.189,0.383,0.689,0.747,1.112,0.808l1.364,0.198C17.114,8.378,17.21,8.672,16.904,8.97z"/>
		</g>
	</g>
</g>
</svg>
