<?xml version="1.0" encoding="utf-8"?>
<!-- Generator: Adobe Illustrator 16.0.0, SVG Export Plug-In . SVG Version: 6.00 Build 0)  -->
<!DOCTYPE svg PUBLIC "-//W3C//DTD SVG 1.1//EN" "http://www.w3.org/Graphics/SVG/1.1/DTD/svg11.dtd">
<svg version="1.1" id="Capa_1" xmlns="http://www.w3.org/2000/svg" xmlns:xlink="http://www.w3.org/1999/xlink" x="0px" y="0px"
	 width="851px" height="315px" viewBox="0 0 851 315" enable-background="new 0 0 851 315" xml:space="preserve">
<g>
	<g id="Layer_5_21_">
		<g>
			<path fill="#FFFFFF" d="M558.848,267.646c0,0-34.962-60.089-41.232-70.866c7.135-2.177,14.735-4.099,17.894-9.552
				c5.264-9.086-4.105-23.992-1.646-33.731c2.534-10.024,17.494-18.697,17.494-28.886c0-9.926-15.466-21.523-18.002-31.488
				c-2.478-9.738,6.863-24.659,1.583-33.734c-5.28-9.076-22.868-8.331-30.108-15.297c-7.449-7.169-7.426-24.71-16.411-29.515
				c-9.021-4.823-23.684,4.923-33.7,2.615C444.816,14.91,435.969,0,425.625,0c-10.497,0-27.192,16.913-29.811,17.521
				c-10.012,2.327-24.692-7.395-33.705-2.552c-8.977,4.821-8.921,22.364-16.357,29.545c-7.228,6.979-24.817,6.266-30.081,15.353
				c-5.263,9.084,4.105,23.987,1.646,33.731c-2.466,9.769-17.947,19.667-17.947,30.965c0,10.189,14.998,18.836,17.547,28.854
				c2.478,9.737-6.863,24.657-1.583,33.737c2.875,4.941,9.397,6.969,15.911,8.92c0.76,0.227,2.198,1.078,1.224,2.496
				c-4.457,7.692-40.324,69.596-40.324,69.596c-2.854,4.923-0.536,9.144,5.147,9.383l27.822,1.16
				c5.684,0.239,12.814,4.369,15.848,9.182l14.846,23.558c3.034,4.813,7.848,4.723,10.7-0.2c0,0,41.54-71.715,41.556-71.736
				c0.833-0.974,1.671-0.773,2.072-0.434c4.545,3.871,10.881,7.73,16.169,7.73c5.186,0,9.987-3.634,14.737-7.687
				c0.387-0.329,1.327-1.005,2.015,0.397c0.012,0.021,41.504,71.344,41.504,71.344c2.86,4.917,7.676,5.001,10.7,0.183l14.804-23.586
				c3.025-4.815,10.148-8.962,15.832-9.21l27.819-1.212C559.398,276.789,561.708,272.563,558.848,267.646z M471.604,203.137
				c-30.762,17.896-67.685,15.979-95.887-1.811c-41.324-26.47-54.921-81.226-30.079-124.104
				c25.126-43.372,80.358-58.675,124.121-34.841c0.229,0.125,0.457,0.254,0.686,0.382c0.324,0.18,0.647,0.362,0.97,0.546
				c13.501,7.784,25.209,19.081,33.592,33.49C530.627,120.84,515.645,177.516,471.604,203.137z"/>
			<path fill="#FFFFFF" d="M464.569,56.271c-0.128-0.074-0.257-0.143-0.385-0.216c-23.377-13.53-53.173-14.519-78.145,0.009
				c-37.057,21.559-49.667,69.246-28.108,106.301c6.579,11.309,15.593,20.336,25.994,26.813c0.884,0.56,1.779,1.11,2.693,1.641
				c37.097,21.491,84.758,8.796,106.25-28.3C514.358,125.423,501.666,77.763,464.569,56.271z M473.85,116.916l-12.989,12.661
				c-4.022,3.921-6.537,11.661-5.587,17.198l3.066,17.877c0.95,5.538-2.341,7.929-7.314,5.314l-16.055-8.44
				c-4.974-2.615-13.11-2.615-18.084,0l-16.055,8.44c-4.973,2.614-8.265,0.224-7.314-5.314l3.066-17.877
				c0.949-5.537-1.565-13.277-5.588-17.198l-12.989-12.661c-4.024-3.921-2.766-7.791,2.794-8.6l17.95-2.608
				c5.56-0.808,12.144-5.591,14.63-10.629l8.027-16.265c2.486-5.038,6.556-5.038,9.041,0l8.028,16.265
				c2.486,5.038,9.069,9.821,14.63,10.629l17.949,2.608C476.615,109.125,477.873,112.995,473.85,116.916z"/>
		</g>
	</g>
</g>
</svg>
